<svg width="18" height="18" viewBox="0 0 18 18" fill="none" xmlns="http://www.w3.org/2000/svg">
<path d="M2.77778 1C1.79594 1 1 1.79241 1 2.76991V15.6678C1 16.086 1.52905 16.2708 1.7915 15.9442L4.28867 12.8365C4.45736 12.6266 4.71275 12.5044 4.98278 12.5044H7.22222M17 7.22222V2.76991C17 1.79241 16.2041 1 15.2222 1H6.33333M11.2222 15.6197C10.4858 15.6197 9.88889 15.028 9.88889 14.2981V11.6549C9.88889 10.925 10.4858 10.3333 11.2222 10.3333H15.6667C16.403 10.3333 17 10.925 17 11.6549V16.5587C17 16.9106 16.6044 17.1204 16.309 16.9253L14.7812 15.9157C14.642 15.8237 14.4911 15.7521 14.3333 15.7024" stroke="#AEEBEA" stroke-width="1.5" stroke-linecap="round" stroke-linejoin="round"/>
</svg>
