<svg width="18" height="22" viewBox="0 0 18 22" fill="none" xmlns="http://www.w3.org/2000/svg">
<path d="M5 7H13M5 11H13M5 15H13M13.4472 2.66821L16.2764 1.24522C16.6088 1.078 17 1.32119 17 1.69508V20.3047C17 20.6786 16.6088 20.9218 16.2764 20.7546L13.4472 19.3316C13.1657 19.19 12.8343 19.19 12.5528 19.3316L9.44721 20.8936C9.16569 21.0352 8.83431 21.0352 8.55279 20.8936L5.44721 19.3316C5.16569 19.19 4.83431 19.19 4.55279 19.3316L1.72361 20.7546C1.39116 20.9218 1 20.6786 1 20.3047V19M9.44721 1.1062C9.30645 1.0354 9.15322 1 9 1C8.84677 1 8.69355 1.0354 8.55279 1.1062L5.44721 2.66821C5.16569 2.8098 4.83431 2.8098 4.55279 2.66821L1.72361 1.24522C1.39116 1.078 1 1.32119 1 1.69508V15" stroke="white" stroke-width="2" stroke-linecap="round" stroke-linejoin="round"/>
</svg>
