<svg width="22" height="22" viewBox="0 0 22 22" fill="none" xmlns="http://www.w3.org/2000/svg">
<path d="M9.58283 9.58283C9.20919 8.80057 9 7.92472 9 7C9 3.68629 11.6863 1 15 1C16.5367 1 17.9385 1.57771 19 2.52779M9.58283 9.58283C8.80057 9.20919 7.92472 9 7 9C5.46329 9 4.06151 9.57771 3 10.5278M9.58283 9.58283C10.8215 10.1745 11.8255 11.1785 12.4172 12.4172M12.4172 12.4172C12.7908 13.1994 13 14.0753 13 15C13 18.3137 10.3137 21 7 21C3.68629 21 1 18.3137 1 15C1 14.6593 1.0284 14.3252 1.08296 14M12.4172 12.4172C13.1994 12.7908 14.0753 13 15 13C18.3137 13 21 10.3137 21 7C21 6.65929 20.9716 6.32521 20.917 6M5 5L7 3M7 3L5 1M7 3H5C2.79086 3 1 4.79086 1 7M17 17L15 19M15 19L17 21M15 19H17C19.2091 19 21 17.2091 21 15" stroke="white" stroke-width="2" stroke-linecap="round" stroke-linejoin="round"/>
</svg>
