<svg width="20" height="20" viewBox="0 0 20 20" fill="none" xmlns="http://www.w3.org/2000/svg">
<path d="M3.5 5.61077L8.78058 1.42717C9.49948 0.85761 10.5005 0.85761 11.2194 1.42717L16.5 5.61077M3.5 5.61077C2.67157 5.61077 2 6.30245 2 7.15568C2 8.00891 2.67157 8.70059 3.5 8.70059H4M3.5 5.61077H10M16.5 5.61077C17.3284 5.61077 18 6.30245 18 7.15568C18 8.00891 17.3284 8.70059 16.5 8.70059H16M16.5 5.61077H14M12 8.70059V15.9102M12 8.70059H16M12 8.70059H8M12 15.9102H16M12 15.9102H8M16 8.70059V15.9102M16 15.9102H17.5C18.3284 15.9102 19 16.6019 19 17.4551C19 18.3083 18.3284 19 17.5 19H8M4 8.70059V15.9102M4 8.70059H8M4 15.9102H2.5C1.67157 15.9102 1 16.6019 1 17.4551C1 18.3083 1.67157 19 2.5 19H4M4 15.9102H8M8 8.70059V15.9102" stroke="white" stroke-width="2" stroke-linecap="round" stroke-linejoin="round"/>
</svg>
