<svg width="16" height="20" viewBox="0 0 16 20" fill="none" xmlns="http://www.w3.org/2000/svg">
<path d="M15 12C15 12.7684 14.326 13.4692 13.2176 14C11.9358 14.6137 10.0732 15 8 15C7.66048 15 7.3266 14.9896 7 14.9696M15 12V8M15 12V16C15 17.6569 11.866 19 8 19C4.13401 19 1 17.6569 1 16V12M1 12C1 12.7684 1.67399 13.4692 2.78242 14C2.85146 14.0331 2.92218 14.0655 2.99453 14.0972M1 12V8M15 8C15 8.76835 14.326 9.46924 13.2176 10C11.9358 10.6137 10.0732 11 8 11C5.92683 11 4.06417 10.6137 2.78242 10C1.67399 9.46924 1 8.76835 1 8M15 8V4M1 8V4M15 4C15 4.76835 14.326 5.46924 13.2176 6C11.9358 6.61375 10.0732 7 8 7C5.92683 7 4.06417 6.61375 2.78242 6C1.67399 5.46924 1 4.76835 1 4M15 4C15 3.43443 14.6348 2.90541 14 2.45389M1 4C1 2.34315 4.13401 1 8 1C8.69497 1 9.36629 1.0434 10 1.12423" stroke="white" stroke-width="2" stroke-linecap="round" stroke-linejoin="round"/>
</svg>
