<svg width="18" height="22" viewBox="0 0 18 22" fill="none" xmlns="http://www.w3.org/2000/svg">
<path d="M6 12H10C12.7614 12 15 14.2386 15 17V18C15 18.5523 14.5523 19 14 19H2C1.44772 19 1 18.5523 1 18V17C1 15.7121 1.48706 14.538 2.28694 13.6517M8 1C5.79086 1 4 2.79086 4 5C4 7.20914 5.79086 9 8 9C10.2091 9 12 7.20914 12 5C12 4.27143 11.8052 3.58835 11.4649 3" stroke="#AEEBEA" stroke-width="1.5" stroke-linecap="round"/>
<path d="M15.6278 17.3703C15.4226 17.1652 15.3201 17.0626 15.3201 16.9351C15.3201 16.8077 15.4226 16.7051 15.6278 16.5L15.7087 16.4191C15.7584 16.3694 15.7832 16.3445 15.8052 16.3245C16.2813 15.8918 17.0083 15.8918 17.4843 16.3245C17.5063 16.3445 17.5312 16.3694 17.5809 16.4191C17.6305 16.4688 17.6555 16.4937 17.6755 16.5157C18.1082 16.9917 18.1082 17.7187 17.6755 18.1948C17.6555 18.2168 17.6306 18.2416 17.5809 18.2913L17.5 18.3722C17.2949 18.5774 17.1923 18.6799 17.0649 18.6799C16.9374 18.6799 16.8348 18.5774 16.6297 18.3722L15.6278 17.3703Z" fill="#9EE8E8"/>
<path d="M15.1926 17.8054C14.9875 17.6003 14.8849 17.4977 14.7575 17.4977C14.63 17.4977 14.5275 17.6003 14.3223 17.8054L13.4773 18.6504C13.26 18.87 13.3941 18.7336 13.115 19.157C12.8358 19.5803 12.6462 20.0544 12.2669 21.0026L12.2126 21.1385C12.0276 21.6009 11.9351 21.8321 12.0515 21.9485C12.1679 22.0649 12.3991 21.9724 12.8615 21.7874L12.9974 21.7331C13.9455 21.3538 14.4197 21.1642 14.843 20.885C15.2664 20.6059 15.13 20.74 15.3496 20.5227L16.1946 19.6777C16.3997 19.4725 16.5023 19.37 16.5023 19.2425C16.5023 19.1151 16.3997 19.0125 16.1946 18.8074L15.1926 17.8054Z" fill="#9EE8E8"/>
</svg>
