<svg width="22" height="16" viewBox="0 0 22 16" fill="none" xmlns="http://www.w3.org/2000/svg">
<path fill-rule="evenodd" clip-rule="evenodd" d="M20 4.5C18.6197 4.5 17.5006 3.38131 17.5 2.00111C17.0082 2.00635 16.5378 2.03006 16.0843 2.06842C15.534 2.11496 15.0501 1.70657 15.0036 1.15625C14.957 0.605932 15.3654 0.122077 15.9157 0.075532C16.4866 0.027245 17.0818 0 17.708 0H19C20.6569 0 22 1.34315 22 3V4.29198V9.70802V11C22 12.6569 20.6569 14 19 14H17.708C15.2215 14 13.2824 14.4712 11.2376 14.9714L11.2098 14.9782C9.17452 15.476 7.03226 16 4.29198 16H3C1.34315 16 0 14.6569 0 13V12C0 11.4477 0.447715 11 1 11C1.37155 11 1.69577 11.2026 1.86819 11.5034C1.91184 11.5011 1.95578 11.5 2 11.5C3.38034 11.5 4.4994 12.6187 4.5 13.9989C6.88743 13.9735 8.77501 13.5147 10.7624 13.0286L10.7902 13.0218C12.7737 12.5367 14.8588 12.0266 17.5 12.001C17.5 12.0007 17.5 12.0003 17.5 12C17.5 10.6193 18.6193 9.5 20 9.5V4.5ZM12.23 2.73135C12.7675 2.60431 13.1002 2.06561 12.9732 1.52814C12.8461 0.990661 12.3074 0.657937 11.77 0.784977C11.4247 0.866593 11.0857 0.949379 10.7498 1.03138C8.70689 1.53024 6.78314 2 4.29198 2H3C1.34315 2 0 3.34315 0 5V8C0 8.55228 0.447715 9 1 9C1.55228 9 2 8.55228 2 8V6.5C3.38071 6.5 4.5 5.38071 4.5 4C4.5 3.99966 4.5 3.99932 4.5 3.99899C7.15027 3.97311 9.25736 3.45686 11.2502 2.96859C11.5793 2.88797 11.9053 2.80811 12.23 2.73135ZM11 10C12.1046 10 13 9.10457 13 8C13 6.89543 12.1046 6 11 6C9.89543 6 9 6.89543 9 8C9 9.10457 9.89543 10 11 10Z" fill="white"/>
</svg>
