<svg width="20" height="20" viewBox="0 0 20 20" fill="none" xmlns="http://www.w3.org/2000/svg">
<path d="M13.0888 3.07412C10.3234 0.308628 5.83961 0.308628 3.07412 3.07412C0.308628 5.83961 0.308628 10.3234 3.07412 13.0888M13.0888 13.0888L16.1746 16.1746M13.0888 13.0888C14.8592 11.3185 15.4962 8.84406 15 6.56697M13.0888 13.0888C11.3011 14.8765 8.79543 15.5086 6.5 14.9851M5.22013 5.22013C6.80041 3.63985 9.36255 3.63985 10.9428 5.22013M16.1746 16.1746L16.3227 16.0264C16.5203 15.8289 16.8406 15.8289 17.0381 16.0264L18.8518 17.8402C19.0494 18.0377 19.0494 18.358 18.8518 18.5555L18.5555 18.8518C18.358 19.0494 18.0377 19.0494 17.8402 18.8518L16.0264 17.0381C15.8289 16.8406 15.8289 16.5203 16.0264 16.3227L16.1746 16.1746Z" stroke="#ffffff" stroke-width="2" stroke-linecap="round" stroke-linejoin="round"/>
</svg>
