<svg width="20" height="20" viewBox="0 0 20 20" fill="none" xmlns="http://www.w3.org/2000/svg">
<path d="M1 5.6906C1.43472 13.4326 7.49124 18.6079 14.3405 18.993C15.9112 19.0813 17.3739 18.3229 18.4863 17.2123C19.2358 16.4642 19.1408 15.2252 18.2862 14.5995L15.4655 12.5344C14.6321 11.9242 13.4774 12.0124 12.7466 12.742C11.9289 13.5583 10.6031 13.5583 9.78534 12.742L7.24482 10.2057C6.4271 9.38931 6.4271 8.06572 7.24482 7.24935C7.97562 6.51977 8.06392 5.36701 7.45275 4.53498L5.36673 1.69514C4.74919 0.854443 3.52634 0.761083 2.78793 1.49826C2.62755 1.65837 2.47471 1.82566 2.33081 1.99979M14.9929 4.99981L12.9929 5M14.9929 4.99981V7M14.9929 4.99981V3M14.9929 4.99981L16.9929 5" stroke="#AEEBEA" stroke-width="1.5" stroke-linecap="round" stroke-linejoin="round"/>
</svg>
