<?xml version="1.0" standalone="no"?>
<!DOCTYPE svg PUBLIC "-//W3C//DTD SVG 20010904//EN"
 "http://www.w3.org/TR/2001/REC-SVG-20010904/DTD/svg10.dtd">
<svg version="1.0" xmlns="http://www.w3.org/2000/svg"
 width="1001.000000pt" height="1001.000000pt" viewBox="0 0 1001.000000 1001.000000"
 preserveAspectRatio="xMidYMid meet">

<defs>
    <linearGradient id="gradient" x1="0%" y1="0%" x2="100%" y2="0%">
        <stop offset="0%" style="stop-color:#1a237e;stop-opacity:1" />
        <stop offset="100%" style="stop-color:#673ab7;stop-opacity:1" />
    </linearGradient>
</defs>

<g transform="translate(0.000000,1001.000000) scale(0.100000,-0.100000)"
fill="url(#gradient)" stroke="none">
<path d="M4740 8604 c-1105 -96 -2059 -639 -2687 -1531 -340 -481 -549 -1025
-630 -1638 -21 -161 -24 -666 -5 -820 108 -873 470 -1615 1073 -2200 590 -571
1307 -908 2144 -1007 143 -16 606 -17 750 0 378 44 678 122 1005 262 452 193
806 429 1143 759 603 591 973 1359 1062 2205 19 187 19 547 0 731 -75 707
-335 1341 -781 1902 -99 125 -410 435 -537 537 -528 420 -1169 695 -1828 782
-118 15 -596 28 -709 18z m475 -624 c1044 -77 1952 -670 2441 -1595 440 -831
452 -1849 33 -2700 -276 -561 -744 -1041 -1293 -1326 -448 -233 -883 -339
-1386 -339 -289 0 -505 28 -780 100 -131 35 -165 55 -266 156 -133 134 -210
298 -234 494 -44 376 171 863 599 1350 194 222 670 694 697 691 4 0 49 -208
99 -462 60 -302 97 -464 106 -470 25 -16 58 -10 73 14 8 12 166 404 351 872
364 918 355 890 298 935 -16 12 -41 20 -66 20 -41 0 -1774 -187 -1814 -195
-31 -7 -48 -41 -35 -69 7 -16 134 -86 426 -236 354 -181 414 -215 399 -224
-31 -20 -282 -137 -428 -199 -544 -230 -902 -323 -1295 -334 -223 -7 -361 10
-522 64 -304 100 -509 327 -571 631 -13 63 -13 87 -1 190 25 216 85 481 147
652 221 608 641 1142 1177 1495 544 359 1203 532 1845 485z m-435 -3198 c0 -5
-21 -24 -47 -43 -171 -122 -716 -551 -888 -698 -210 -179 -266 -242 -411 -461
-196 -295 -303 -555 -332 -805 l-7 -70 -176 175 c-97 96 -206 213 -243 260
-165 207 -340 508 -435 748 -23 56 -41 106 -41 110 0 5 39 0 88 -10 120 -25
339 -33 492 -19 233 23 525 84 665 138 193 76 699 333 1150 587 172 96 185
103 185 88z"/>
</g>
</svg>
